<style>
a polygon, a {
  color: yellow;
}
</style>
<svg xmlns="http://www.w3.org/2000/svg" xmlns:xlink="http://www.w3.org/1999/xlink" viewBox="0 0 800 600">
	<g id="ground">
		<rect id="background" fill="#eee" width="800" height="600"></rect>
		<g id="parking">
			<path fill="#fff" d="M287.5 340c0 5.5-3.182 13.182-7.071 17.071l-39.857 39.857C236.682 400.818 229 404 223.5 404h-142c-5.5 0-10-4.5-10-10v-88c0-5.5 4.5-10 10-10h124c5.5 0 10-4.05 10-9s4.5-9 10-9h34c5.5 0 13.182 3.182 17.071 7.071l3.857 3.857c3.889 3.889 7.071 11.571 7.071 17.071V340z"></path>
			<path fill="none" stroke="#ddd" stroke-width="0.5" d="M287.5 340c0 5.5-3.182 13.182-7.071 17.071l-39.857 39.857C236.682 400.818 229 404 223.5 404h-142c-5.5 0-10-4.5-10-10v-88c0-5.5 4.5-10 10-10h124c5.5 0 10-4.05 10-9s4.5-9 10-9h34c5.5 0 13.182 3.182 17.071 7.071l3.857 3.857c3.889 3.889 7.071 11.571 7.071 17.071V340z"></path>
		</g>
		<polygon fill="#E4E4E4" points="759.13,106.909 712,106.909 712,139.234 754.63,139.197 759.13,145.106 759.13,219.769 638.08,219.769 633.58,213.86 677,145.147 677.999,106.909 637.08,106.909 632.58,101 754.63,0 759.13,0"></polygon>
		<polygon fill="#F4F4F4" points="754.63,101 707.5,101 707.5,139.238 754.63,139.197 754.63,213.86 633.58,213.86 633.524,139.238 672.5,139.238 673.499,101 632.58,101 593.5,0 754.63,0  "></polygon>
		<polygon fill="#E4E4E4" points="227.531,565.469 35.091,565.242 30.091,557.242 229.909,487.278 234.909,495.278"></polygon>
		<polygon fill="#F4F4F4" points="222.531,557.469 30.091,557.242 30.466,438.53 190.749,438.92 229.909,487.278"></polygon>
		<polygon fill="#fff" stroke="#DDDCDC" stroke-width="0.5" points="800,345.755 566.5,600 632.96,600 800,413"></polygon>
		<polygon id="road_1_" fill="#fff" stroke="#ddd" stroke-width="0.5" points="402.5,600 214.833,404 198.5,404 385.5,600"></polygon>
	</g>
	<g id="fund">
		<path display="none" fill="#E4E4E4" d="M425.5 498l54-54h36l36 36h63l27-27v-63l-90-90c0 0 0-54 0-99s-36-72-72-72h-9l-54-54h-63l-36 36h-126V93h-117v180h117v-18h99l36 36v72l-63 63 72 72H425.5z"></path>
		<path fill="#E4E4E4" d="M425.5 499l54-54h36l36 36h63l27-27v-63l-90-90c0 0 0-54 0-99s-36-72-72-72h-9l-54-54h-63l-36 36h-126V94h-117v180h117v-18h99l36 36v72l-63 63 72 72H425.5z"></path>
		<path fill="#fff" d="M422.5 494l54-54h36l36 36h63l27-27v-63l-90-90c0 0 0-54 0-99s-36-72-72-72h-9l-54-54h-63l-36 36h-126V89h-117v180h117v-18h99l36 36v72l-63 63 72 72H422.5z"></path>
	</g>
	<g id="shops">
		<circle fill="#bbb" stroke="#ABABAB" stroke-width="0.5" cx="377.5" cy="179" r="9"></circle>
		<g id="health">
			<a xlink:href="#walgreens" xlink:title="Walgreens"><polygon points="242.5,188 215.5,188 197.5,206 197.5,251 242.5,251"></polygon></a>
			<a xlink:href="#cvs" xlink:title="CVS Pharmacy"><polygon points="512.5,251 503.5,242 467.5,278 467.5,287 512.5,287"></polygon></a>
			<a xlink:href="#sephora" xlink:title="Sephora"><polygon points="458.5,458 422.5,494 386.5,494 386.498,457.998 386.5,422 404.5,404"></polygon></a>
		</g>
		<g id="misc">
			<rect x="242.5" y="107" width="36" height="63"></rect>
			<polygon points="350.5,422 305.5,377 323.5,359 413.5,359"></polygon>
			<polygon points="476.5,440 494.5,422 458.5,386 485.501,359.002 539.5,413 512.5,440"></polygon>
			<rect x="528.636" y="359.772" transform="matrix(0.7071 -0.7071 0.7071 0.7071 -106.6994 487.4048)" width="12.728" height="25.456"></rect>
			<polygon points="395.5,89 395.5,116 440.5,116 449.5,107 431.5,89"></polygon>
			<rect x="542.136" y="379.636" transform="matrix(0.7071 0.7071 -0.7071 0.7071 433.5952 -274.7913)" width="12.728" height="12.728"></rect>
			<rect x="531.272" y="299.408" transform="matrix(0.7071 0.7071 -0.7071 0.7071 384.5474 -291.3796)" width="25.456" height="38.184"></rect>
			<rect x="549.272" y="317.408" transform="matrix(0.7071 0.7071 -0.7071 0.7071 402.5474 -298.8354)" width="25.456" height="38.184"></rect>
			<rect x="260.5" y="188" width="27" height="36"></rect>
		</g>
		<g id="other">
			<polygon fill="#BCBCBC" stroke="#fff" stroke-width="0.5" points="638.5,449 629.5,449 620.5,440     638.5,422   "></polygon>
			<polygon fill="#bbb" stroke="#fff" stroke-width="0.5" points="512.5,287 512.5,251 530.5,269     530.5,287   "></polygon>
			<rect x="530.5" y="269" fill="#bbb" stroke="#fff" stroke-width="0.5" width="18" height="18"></rect>
		</g>
		<g id="clothing">
			<a xlink:href="#sportchek" xlink:title="Sport Chek"><polygon points="242.5,107 188.5,107 188.5,143 215.5,170 242.5,170"></polygon></a>
			<polygon points="467.5,287 548.5,287 548.5,296 521.5,323 503.5,323 467.5,287"></polygon>
			<a xlink:href="#oldnavy" xlink:title="Old Navy"><polygon points="350.5,71 314.5,107 314.5,170 332.5,170 368.5,134 368.5,71"></polygon></a>
			<a xlink:href="#zara" xlink:title="Zara"><polygon points="440.5,170 395.5,215 440.5,260 458.501,260 494.5,224"></polygon></a>
			<a xlink:href="#belk" xlink:title="Belk"><polygon points="413.5,359 323.5,359 323.5,287 422.5,287 422.5,296 413.5,305"></polygon></a>
			<polygon points="260.5,224 260.5,188 242.5,188 242.5,251 287.5,251 287.5,224"></polygon>
			<polygon points="566.5,422 530.5,458 512.5,440 539.5,413 557.5,413"></polygon>
			<polygon points="422.5,161 395.5,134 395.5,116 440.5,116 440.5,143"></polygon>
			<polygon points="593.5,413 575.5,395 575.5,377 602.5,350 620.5,368 602.5,386 611.5,395"></polygon>
			<rect x="567.272" y="335.408" transform="matrix(0.7071 0.7071 -0.7071 0.7071 420.5474 -306.2913)" width="25.456" height="38.184"></rect>
			<a xlink:href="#hm" xlink:title="H&amp;M"><rect x="411.316" y="387.544" transform="matrix(0.7071 0.7071 -0.7071 0.7071 423.6906 -196.8796)" width="76.368" height="50.912"></rect></a>
			<polygon points="485.501,359.002 458.5,386 440.5,368 476.5,332 485.5,341"></polygon>
			<rect x="278.5" y="107" width="36" height="63"></rect>
			<rect x="544.772" y="423.544" transform="matrix(0.7071 0.7071 -0.7071 0.7071 480.7789 -262.703)" width="25.456" height="50.912"></rect>
		</g>
		<g id="food">
			<polygon points="449.5,179 440.5,170 449.5,161 467.5,161"></polygon>
			<rect x="456.636" y="161.772" transform="matrix(0.7071 0.7071 -0.7071 0.7071 258.9997 -276.2806)" width="12.728" height="25.456"></rect>
			<a xlink:href="#pizzahut" xlink:title="Pizza Hut"><rect x="465.636" y="170.772" transform="matrix(0.7071 0.7071 -0.7071 0.7071 267.9997 -280.0085)" width="12.728" height="25.456"></rect></a>
			<a xlink:href="#kfc" xlink:title="Kentucky Friend Chicken"><rect x="474.636" y="179.772" transform="matrix(0.7071 0.7071 -0.7071 0.7071 276.9997 -283.7364)" width="12.728" height="25.456"></rect></a>
			<a xlink:href="#mcdonalds" xlink:title="McDonald's"><polygon points="503.5,215 494.5,224 476.5,206 494.5,188 503.5,197"></polygon></a>
			<rect x="530.5" y="197" width="18" height="18"></rect>
			<rect x="530.5" y="215" width="18" height="18"></rect>
			<a xlink:href="#applebees" xlink:title="Applebee's"><polygon points="539.5,269 512.5,242 530.5,233 548.5,233 548.5,269"></polygon></a>
			<polygon points="467.5,143 458.5,143 458.5,116 467.5,125"></polygon>
			<a xlink:href="#subway" xlink:title="Subway"><polygon points="458.5,143 440.5,143 440.5,116 449.5,107 458.5,116"></polygon></a>
			<a xlink:href="#starbucks" xlink:title="Starbucks"><polygon points="620.5,440 593.5,413 611.5,395 602.5,386 620.5,368 638.5,386 638.5,422"></polygon></a>
			<rect x="506.136" y="343.636" transform="matrix(0.7071 0.7071 -0.7071 0.7071 397.5952 -259.8796)" width="12.728" height="12.728"></rect>
			<rect x="515.136" y="352.636" transform="matrix(0.7071 0.7071 -0.7071 0.7071 406.5952 -263.6075)" width="12.728" height="12.728"></rect>
			<polygon points="395.5,71 395.5,89 431.5,89 413.5,71"></polygon>
			<polygon points="548.5,476 584.5,440 611.5,467 611.5,476"></polygon>
		</g>
		<g id="department">
			<a xlink:href="#sears" xlink:title="Sears"><rect x="71.5" y="89" width="117" height="180"></rect></a>
			<a xlink:href="#macys" xlink:title="Macy's"><polygon points="323.5,188 287.5,188 287.5,251 323.5,287 422.5,287"></polygon></a>
			<a xlink:href="#jcpenney" xlink:title="JCPenney"><polygon points="386.5,494 332.5,494 260.5,422 305.5,377 368.501,440.001 386.5,440 386.5,458"></polygon></a>
		</g>
	</g>
	<g id="signs">
		<g class="escalator-down">
			<path fill="#454545" d="M451.231 261.439c-0.575 0-0.897 0.297-0.897 0.904v6.255c0 0.567 0.29 0.864 0.864 0.864h6.281c0.573 0 0.864-0.282 0.864-0.864v-6.255c0-0.592-0.291-0.904-0.883-0.904C457.461 261.439 451.23 261.438 451.231 261.439z"></path>
			<path fill="#fff" d="M453.852 263.549c0.27 0 0.487-0.218 0.487-0.488 0-0.269-0.218-0.487-0.487-0.487s-0.488 0.218-0.488 0.487C453.363 263.331 453.582 263.549 453.852 263.549z"></path>
			<path fill="#fff" d="M453.852 263.061"></path>
			<path fill="#fff" d="M454.334 264.427v-0.307c0-0.655-0.965-0.648-0.965 0v1.253h0.001l-0.911 0.912c-0.086 0.086-0.097 0.089-0.267 0.089 0 0-0.557 0-0.557 0 -0.562 0-0.897 0.505-0.897 0.932s0.336 0.968 0.947 0.968c0 0 0.759 0 0.993 0s0.519-0.089 0.753-0.311l2.908-2.899c0.063-0.055 0.098-0.073 0.204-0.073 0 0 0.4 0 0.718 0 0.346 0 0.835-0.392 0.835-0.957 0-0.559-0.493-0.931-0.863-0.933H456.1c-0.234 0-0.536 0.096-0.716 0.276L454.334 264.427 454.334 264.427z"></path>
			<path fill="#fff" d="M455.145 268.304h1.02c0.279 0 0.291-0.431 0-0.431h-0.522l0.993-0.993c0.22-0.22-0.092-0.539-0.325-0.305l-0.979 0.98v-0.517c0.002-0.28-0.434-0.291-0.434 0v1.012C454.897 268.202 454.998 268.304 455.145 268.304z"></path>
			<path fill="#454545" d="M456.169 263.585h1.02c0.248 0 0.415 0.277 0.415 0.443s-0.118 0.474-0.422 0.474h-0.613c-0.259 0-0.375 0.037-0.523 0.186l-2.931 2.931c-0.119 0.118-0.27 0.166-0.462 0.166h-0.967c-0.248 0-0.467-0.21-0.467-0.486s0.209-0.43 0.424-0.43h0.663c0.192 0 0.321-0.055 0.431-0.166l2.979-2.98C455.839 263.601 455.961 263.585 456.169 263.585z"></path>
		</g>
		<g class="escalator-up">
			<path fill="#454545" d="M441.813 261.439c-0.575 0-0.897 0.297-0.897 0.904v6.255c0 0.567 0.29 0.864 0.864 0.864h6.281c0.573 0 0.864-0.282 0.864-0.864v-6.255c0-0.592-0.291-0.904-0.883-0.904C448.043 261.439 441.813 261.438 441.813 261.439z"></path>
			<path fill="#fff" d="M444.435 263.549c0.27 0 0.487-0.218 0.487-0.488 0-0.269-0.218-0.487-0.487-0.487s-0.488 0.218-0.488 0.487C443.946 263.331 444.165 263.549 444.435 263.549z"></path>
			<path fill="#fff" d="M444.435 263.061"></path>
			<path fill="#fff" d="M444.917 264.427v-0.307c0-0.655-0.965-0.648-0.965 0v1.253h0.001l-0.911 0.912c-0.086 0.086-0.097 0.089-0.267 0.089 0 0-0.557 0-0.557 0 -0.562 0-0.897 0.505-0.897 0.932s0.336 0.968 0.947 0.968c0 0 0.759 0 0.993 0s0.519-0.089 0.753-0.311l2.908-2.899c0.063-0.055 0.098-0.073 0.204-0.073 0 0 0.4 0 0.718 0 0.346 0 0.835-0.392 0.835-0.957 0-0.559-0.493-0.931-0.863-0.933h-1.134c-0.234 0-0.536 0.096-0.716 0.276L444.917 264.427 444.917 264.427z"></path>
			<path fill="#fff" d="M447.044 266.493h-1.02c-0.279 0-0.291 0.431 0 0.431h0.522l-0.993 0.993c-0.22 0.22 0.092 0.539 0.325 0.305l0.979-0.98v0.517c-0.002 0.28 0.434 0.291 0.434 0v-1.012C447.291 266.595 447.19 266.493 447.044 266.493z"></path>
			<path fill="#454545" d="M446.752 263.585h1.02c0.248 0 0.415 0.277 0.415 0.443s-0.118 0.474-0.422 0.474h-0.613c-0.259 0-0.375 0.037-0.523 0.186l-2.931 2.931c-0.119 0.118-0.27 0.166-0.462 0.166h-0.967c-0.248 0-0.467-0.21-0.467-0.486s0.209-0.43 0.424-0.43h0.663c0.192 0 0.321-0.055 0.431-0.166l2.979-2.98C446.422 263.601 446.544 263.585 446.752 263.585z"></path>
		</g>
		<g class="toilet-women" transform="translate(-8.29e-2,-0.5853944)">
			<path fill="#454545" d="M518.599 275.207c-0.575 0-0.897 0.297-0.897 0.904v6.255c0 0.567 0.29 0.864 0.864 0.864h6.281c0.573 0 0.864-0.282 0.864-0.864v-6.255c0-0.592-0.291-0.904-0.883-0.904C524.829 275.207 518.599 275.206 518.599 275.207z"></path>
			<path fill="#fff" d="M521.711 277.434c0.222 0 0.401-0.179 0.401-0.401s-0.18-0.401-0.401-0.401c-0.22 0-0.4 0.179-0.4 0.401S521.491 277.434 521.711 277.434z"></path>
			<path fill="#fff" d="M521.651 279.978v1.389c0 0.252-0.378 0.252-0.378 0v-1.379h-0.506l0.541-1.883h-0.083l-0.316 1.062c-0.075 0.232-0.394 0.137-0.32-0.111l0.351-1.154c0.037-0.131 0.204-0.365 0.492-0.365h0.265l0 0h0.286c0.287 0 0.453 0.235 0.496 0.365l0.352 1.153c0.069 0.248-0.246 0.35-0.321 0.108l-0.315-1.058h-0.091l0.547 1.883h-0.509v1.381c0 0.25-0.376 0.25-0.376 0v-1.391H521.651z"></path>
		</g>
		<g class="toilet-men">
			<path fill="#454545" d="M536.924 274.519c-0.571 0-0.893 0.295-0.893 0.899v6.222c0 0.565 0.289 0.86 0.859 0.86h6.249c0.57 0 0.86-0.281 0.86-0.86v-6.222c0-0.589-0.29-0.899-0.878-0.899C543.122 274.519 536.922 274.517 536.924 274.519z"></path>
			<path fill="#fff" d="M539.993 276.697c0.235 0 0.427-0.191 0.427-0.427 0-0.235-0.191-0.427-0.427-0.427s-0.427 0.191-0.427 0.427C539.566 276.506 539.758 276.697 539.993 276.697z"></path>
			<path fill="#fff" d="M539.536 276.791c-0.302 0-0.545 0.247-0.545 0.554v1.311c0 0.255 0.373 0.255 0.373 0v-1.199h0.089v3.282c0 0.341 0.496 0.331 0.496 0v-1.905h0.085v1.905c0 0.331 0.5 0.341 0.5 0v-3.282h0.085v1.199c0 0.257 0.372 0.257 0.371 0v-1.303c0-0.284-0.22-0.561-0.553-0.561L539.536 276.791z"></path>
		</g>
	</g>
</svg>
